# xmcd
#
# Track frame offsets: 
#        150
#        19867
#        62439
#        82230
#
# Disc length: 1165 seconds
#
# Revision: 2
# Processed by: cddbd v1.5.2PL0 Copyright (c) Steve Scherf et al.
# Submitted via: ExactAudioCopyFreeDBPlugin 1.0
#
DISCID=2b048b04
DTITLE=新田美波 (洲崎綾) - THE IDOLM@STER CINDERELLA MASTER 019 新田美波 (洲崎綾)
DYEAR=2013
DGENRE=Soundtrack
TTITLE0=ヴィーナスシンドローム
TTITLE1=ドラマ「目指せ! シンデレラNO. 1! -新田美波編-」
TTITLE2=ヴィーナスシンドローム (オリジナル・カラオケ)
TTITLE3=ボーナス・トラック
EXTD=
EXTT0=
EXTT1=
EXTT2=
EXTT3=
PLAYORDER=
